<?xml version="1.0" encoding="utf-8"?>
<!-- Generator: Adobe Illustrator 22.0.1, SVG Export Plug-In . SVG Version: 6.00 Build 0)  -->
<svg version="1.1" id="Layer_6" xmlns="http://www.w3.org/2000/svg" xmlns:xlink="http://www.w3.org/1999/xlink" x="0px" y="0px"
	 viewBox="0 0 77.4 87.7" style="enable-background:new 0 0 77.4 87.7;" xml:space="preserve">
<style type="text/css">
	.st0{fill:#FFFFFF;}
</style>
<g>
	<path class="st0" d="M71.4,31.1h-2.7h-2.4H55.4h-1.5H52c-3,0-5.5-2.2-5.5-4.8v-2.1V5.7c0-2.6-2.5-4.8-5.5-4.8h-1.3H36H12.2H8.7H6.3
		c-3,0-5.5,2.2-5.5,4.8V23v20.3v39.1c0,0.8,0.2,1.5,0.6,2.2c0.9,1.6,2.7,2.7,4.9,2.7h5.9c3,0,5.5-2.2,5.5-4.8v-0.1V46.2v-2.3V25.1
		c0,0-0.1,0-0.1,0v-2v-2.6c0-2.6,2.5-4.8,5.5-4.8h1.4c3,0,6,2.2,6,4.8v2.6v5.7v15.1v7.7v30.9c0,2.6,2.5,4.8,5.5,4.8h5.1
		c3,0,5.5-2.2,5.5-4.8V73v-8.5V54.4v-4.7c0-2.6,2.5-4.8,5.5-4.8h3.3c1.3,0,2.5,0.4,3.4,1.1c0.4,0.3,0.7,0.6,1,0.9
		c0.7,0.8,1.1,1.8,1.1,2.8v4.6v0.1V73v9.4c0,2.6,2.5,4.8,5.5,4.8h5.1c3,0,5.5-2.2,5.5-4.8V70.9v-35C76.9,33.2,74.4,31.1,71.4,31.1z"
		/>
	<path class="st0" d="M63.1,17.7h10.8c1.7,0,3-1.4,3-3V3.9c0-1.6-1.3-3-3-3H63.1c-1.7,0-3,1.4-3,3v10.8
		C60.1,16.3,61.4,17.7,63.1,17.7z"/>
</g>
</svg>
