<?xml version="1.0" encoding="utf-8"?>
<!-- Generator: Adobe Illustrator 22.0.1, SVG Export Plug-In . SVG Version: 6.00 Build 0)  -->
<svg version="1.1" xmlns="http://www.w3.org/2000/svg" xmlns:xlink="http://www.w3.org/1999/xlink" x="0px" y="0px"
	 viewBox="0 0 189 372.5" style="enable-background:new 0 0 189 372.5;" xml:space="preserve">
<style type="text/css">
	.st0{fill:#FFFFFF;}
	.st1{display:none;}
	.st2{display:inline;}
	.st3{fill:#562D82;}
	.st4{fill:#662D91;}
	.st5{fill:#9E278F;}
	.st6{display:inline;fill:#9E278F;}
	.st7{fill:#FF39C2;}
</style>
<g id="Layer_2">
	<g>
		<path class="st0" d="M172.8,73.8h-6.4h-5.7l-25.7,0l-3.5,0H127c-7.1,0-13-5.2-13-11.3v-5l0-43.6c0-6.1-5.9-11.3-13-11.3l-3.1,0
			l-8.7,0l-60,0l-8.3,0l-5.7,0c-7.1,0-13,5.2-13,11.3l0,40.8l0,47.9l0,255.1c0,1.6,0.4,3.1,1.1,4.5c1.9,4.2,6.5,7.1,11.8,7.1h13.9
			c7.1,0,13-5.2,13-11.3v-0.2l0-248.2L42,48.8c0-6.1,5.9-11.3,13-11.3h7.1c7.1,0,14.2,5.2,14.2,11.3l0,6.1l0,13.4l0,35.6l0,18.2
			l0,235.7c0,6.1,5.9,11.3,13,11.3l12,0c7.1,0,13-5.2,13-11.3l0-22.4l0-20.1l0-186.7l0-11.1c0-6.1,5.9-11.3,13-11.3l7.8,0
			c3.1,0,5.9,0.9,8,2.6c0.9,0.7,1.7,1.4,2.4,2.1c1.7,1.9,2.6,4.2,2.6,6.6l0,10.9v0.2l0,206.7l0,22.2c0,6.1,5.9,11.3,13,11.3h12
			c7.1,0,13-5.2,13-11.3l0-27.1l0-245.4C185.8,78.8,179.9,73.8,172.8,73.8z"/>
		<path class="st0" d="M153.2,42.2l25.5,0c4,0,7.1-3.3,7.1-7.1l0-25.5c0-3.8-3.1-7.1-7.1-7.1l-25.5,0c-4,0-7.1,3.3-7.1,7.1l0,25.5
			C146.1,38.9,149.2,42.2,153.2,42.2z"/>
	</g>
</g>
<g id="Layer_1" class="st1">
	<g class="st2">
		<path class="st3" d="M153.2,42.2h25.5c4,0,7.1-3.3,7.1-7.1V9.7c0-3.8-3.1-7.1-7.1-7.1h-25.5c-4,0-7.1,3.3-7.1,7.1v25.5
			C146.1,38.9,149.2,42.2,153.2,42.2z"/>
		<path class="st4" d="M186,234.1l0-73l0-75.9c-0.2-6.4-6.1-11.3-13.2-11.3h-6.4h-5.7H135h-3.5H127c-7.1,0-13-5.2-13-11.3v-5V13.9
			c0-6.1-5.9-11.3-13-11.3H98h-8.7l-60,0H21h-5.7c-7.1,0-13,5.2-13,11.3v17.5v23.4l0,47.9v1.8l0,253.3c0,1.6,0.4,3.1,1.1,4.5
			c1.9,4.2,6.5,7.1,11.8,7.1h13.9c7.1,0,13-5.2,13-11.3v-0.2l0-244.1L42,48.8c0-2.8,1.2-5.3,3.1-7.3c2.4-2.4,5.9-4,9.8-4h7.1
			c7.1,0,14.2,5.2,14.2,11.3v3.9V55v13.4l0,35.6v18.2v3.5l0,232.2c0,6.1,5.9,11.3,13,11.3l12,0c7.1,0,13-5.2,13-11.3v-22.4v-20.1
			l0-166.8v-19.9v-11.1c0-6.1,5.9-11.3,13-11.3h7.8c3.1,0,5.9,0.9,8,2.6c0.9,0.7,1.7,1.4,2.4,2.1c1.7,1.9,2.6,4.2,2.6,6.6v10.9v0.2
			V179l0,156.5v22.2c0,6.1,5.9,11.3,13,11.3h12c7.1,0,13-5.2,13-11.3v-27.1L186,234.1z"/>
	</g>
</g>
<g id="Layer_3" class="st1">
	<g class="st2">
		<path class="st5" d="M186,234.1l0-73C162.5,114,123.8,75.7,76.3,52.7V55v13.4l0,35.6v18.2v3.5l0,232.2c0,6.1,5.9,11.3,13,11.3
			l12,0c7.1,0,13-5.2,13-11.3v-22.4v-20.1l0-166.8v-19.9v-11.1c0-6.1,5.9-11.3,13-11.3h7.8c3.1,0,5.9,0.9,8,2.6
			c0.9,0.7,1.7,1.4,2.4,2.1c1.7,1.9,2.6,4.2,2.6,6.6v10.9v0.2V179l0,156.5v22.2c0,6.1,5.9,11.3,13,11.3h12c7.1,0,13-5.2,13-11.3
			v-27.1L186,234.1z"/>
	</g>
	<path class="st6" d="M42,48.8c0-2.8,1.2-5.3,3.1-7.3c-13.7-4.7-28.1-8.1-42.8-10.2v23.4l0,47.9v1.8l0,253.3c0,1.6,0.4,3.1,1.1,4.5
		c1.9,4.2,6.5,7.1,11.8,7.1h13.9c7.1,0,13-5.2,13-11.3v-0.2l0-244.1L42,48.8z"/>
</g>
<g id="Layer_4" class="st1">
	<g class="st2">
		<path class="st7" d="M2.4,357.7c0,1.6,0.4,3.1,1.1,4.5c1.9,4.2,6.5,7.1,11.8,7.1h13.9c7.1,0,13-5.2,13-11.3v-0.2l0-244.1
			c-12.8-4.2-26.2-7.3-39.9-9.2L2.4,357.7z"/>
		<path class="st7" d="M148,335.5v22.2c0,6.1,5.9,11.3,13,11.3h12c7.1,0,13-5.2,13-11.3v-27.1l0-96.5c-10.1-20.2-22.9-38.7-38-55.1
			L148,335.5z"/>
		<path class="st7" d="M76.3,357.9c0,6.1,5.9,11.3,13,11.3l12,0c7.1,0,13-5.2,13-11.3v-22.4v-20.1l0-166.8
			c-11.9-8.8-24.6-16.5-38-23L76.3,357.9z"/>
	</g>
</g>
</svg>
