<?xml version="1.0" encoding="utf-8"?>
<!-- Generator: Adobe Illustrator 22.0.1, SVG Export Plug-In . SVG Version: 6.00 Build 0)  -->
<svg version="1.1" xmlns="http://www.w3.org/2000/svg" xmlns:xlink="http://www.w3.org/1999/xlink" x="0px" y="0px"
	 viewBox="0 0 81.2 103.4" style="enable-background:new 0 0 81.2 103.4;" xml:space="preserve">
<style type="text/css">
	.st0{display:none;}
	.st1{display:inline;fill:#F15A24;}
	.st2{display:inline;fill:#ED1C24;}
	.st3{display:inline;}
	.st4{fill:none;}
	.st5{fill:#151515;}
</style>
<g id="Layer_1" class="st0">
	<path class="st1" d="M62.1,25.5V14.7c0-1.6,1.4-3,3-3h10.8c1.6,0,3,1.4,3,3v10.8c0,1.6-1.4,3-3,3H65.1
		C63.4,28.5,62.1,27.2,62.1,25.5z"/>
	<path class="st1" d="M75.1,39.4h-2.7h-3.2h-9.5h-2h-2c-2.2,0-4.1-1.8-4.1-4.1v-4.6V10.6c0-3-2.5-5.4-5.4-5.4h-2h-3.9H17h-3.5h-2.4
		c-3,0-5.4,2.5-5.4,5.4v87.1c0,3,2.5,5.4,5.4,5.4H17c3,0,5.4-2.4,5.4-5.4V55.3v-25V26c0-2.3,1.8-4.1,4.1-4.1h4.1
		c2.3,0,4.1,1.8,4.1,4.1v4.3v25v42.4c0,3,2.4,5.4,5.4,5.4h5.9c3,0,5.4-2.4,5.4-5.4v-8.2V65.8v-5.6c0-2.2,1.8-4.1,4.1-4.1h4.1
		c2.2,0,4.1,1.8,4.1,4.1v5.6v23.7v8.2c0,3,2.5,5.4,5.4,5.4h5.9c3,0,5.4-2.4,5.4-5.4V44.8C80.5,41.8,78.1,39.4,75.1,39.4z"/>
</g>
<g id="Layer_2" class="st0">
	<path class="st2" d="M64,18.8V8c0-1.7,1.3-3,3-3h10.8c1.7,0,3,1.3,3,3v10.8c0,1.6-1.3,3-3,3H67C65.4,21.8,64,20.5,64,18.8z"/>
	<path class="st2" d="M75.4,39.3h-2.7h-2.4H59.3h-1.5h-1.5c-3,0-5.5-2.5-5.5-5.5v-2.4v-21c0-3-2.5-5.5-5.5-5.5h-1.3h-3.9H17.2h-3.5
		h-2.4c-3,0-5.5,2.5-5.5,5.5v87.4c0,3,2.5,5.5,5.5,5.5h5.9c3,0,5.5-2.5,5.5-5.5V53.9V30.2v-3c0-3,2.5-5.5,5.5-5.5h1.4
		c3,0,5.5,2.5,5.5,5.5v3v23.7v43.9c0,3,2.5,5.5,5.5,5.5h5.1c3,0,5.5-2.5,5.5-5.5V87.1V65.8v-5.4c0-3,2.5-5.5,5.5-5.5h2.9
		c3,0,5.5,2.5,5.5,5.5v5.4v21.2v10.8c0,3,2.5,5.5,5.5,5.5h5.1c3,0,5.5-2.5,5.5-5.5v-53C80.9,41.8,78.4,39.3,75.4,39.3z"/>
</g>
<g id="Layer_3" class="st0">
	<path class="st3" d="M64.1,18.8V8c0-1.7,1.3-3,3-3H78c1.7,0,3,1.3,3,3v10.8c0,1.6-1.3,3-3,3H67.1C65.5,21.8,64.1,20.5,64.1,18.8z"
		/>
	<path class="st3" d="M75.5,39.3h-2.7h-2.4H59.4H58h-1.9c-3,0-5.5-2.5-5.5-5.5v-2.4v-21c0-3-2.5-5.5-5.5-5.5h-1.3h-3.9H16.3h-3.5
		h-2.4c-3,0-5.5,2.5-5.5,5.5v87.4c0,3,2.5,5.5,5.5,5.5h5.9c3,0,5.5-2.5,5.5-5.5V53.9V30.2v-3c0-3,2.5-5.5,5.5-5.5h1.4
		c3,0,6,2.5,6,5.5v3v23.7v43.9c0,3,2.5,5.5,5.5,5.5h5.1c3,0,5.5-2.5,5.5-5.5V87.1V65.8v-5.4c0-3,2.5-5.5,5.5-5.5h3.3
		c3,0,5.5,2.5,5.5,5.5v5.4v21.2v10.8c0,3,2.5,5.5,5.5,5.5h5.1c3,0,5.5-2.5,5.5-5.5v-53C81,41.8,78.5,39.3,75.5,39.3z"/>
	<circle class="st1" cx="-18.3" cy="77" r="61.8"/>
	<circle class="st1" cx="-18.3" cy="77" r="84.8"/>
</g>
<g id="Layer_4">
	<g>
		<path class="st4" d="M62.8,56.2c0.3,0.4,0.7,0.7,1,1.1C63.6,56.8,63.2,56.5,62.8,56.2z"/>
		<path class="st4" d="M34.6,30.2v-3c0-3-3-5.5-6-5.5h-1.4c-3,0-5.5,2.5-5.5,5.5v3v2.3c4.4,1.1,8.7,2.5,12.8,4.2V30.2z"/>
	</g>
	<g>
		<path class="st5" d="M34.6,62.7v35.1c0,3,2.5,5.5,5.5,5.5h5.1c3,0,5.5-2.5,5.5-5.5V87.1v-9.7C46.2,71.6,40.8,66.6,34.6,62.7z"/>
		<path class="st5" d="M10.4,103.3h5.9c3,0,5.5-2.5,5.5-5.5V56.6c-5.3-1.8-11-3-16.8-3.3v44.5C4.9,100.8,7.4,103.3,10.4,103.3z"/>
	</g>
	<g>
		<path class="st5" d="M34.6,36.7v17.2v8.8c6.2,3.9,11.6,8.9,16.1,14.6V65.8v-5.4c0-3,2.5-5.5,5.5-5.5h3.3c1.3,0,2.5,0.5,3.4,1.2
			C54.9,47.9,45.3,41.3,34.6,36.7z"/>
		<path class="st5" d="M21.8,56.6v-2.7V32.5c-5.4-1.3-11.1-2.1-16.8-2.3v23.1C10.8,53.6,16.4,54.7,21.8,56.6z"/>
		<path class="st5" d="M64.9,60.4v5.4v21.2v10.8c0,3,2.5,5.5,5.5,5.5h5.1c3,0,5.5-2.5,5.5-5.5V84.7c-3.9-10.3-9.8-19.6-17.1-27.5
			C64.5,58.1,64.9,59.2,64.9,60.4z"/>
	</g>
	<path class="st5" d="M21.8,30.2v-3c0-3,2.5-5.5,5.5-5.5h1.4c3,0,6,2.5,6,5.5v3v6.5c10.7,4.5,20.3,11.2,28.2,19.4
		c0.4,0.3,0.7,0.7,1,1.1c7.3,7.9,13.2,17.2,17.1,27.5V44.8c0-3-2.5-5.5-5.5-5.5h-2.7h-2.4H59.4H58h-1.9c-3,0-5.5-2.5-5.5-5.5v-2.4
		v-21c0-3-2.5-5.5-5.5-5.5h-1.3h-3.9H16.3h-3.5h-2.4c-3,0-5.5,2.5-5.5,5.5v19.8c5.8,0.2,11.4,1,16.8,2.3V30.2z"/>
	<path class="st5" d="M67.1,21.8H78c1.7,0,3-1.4,3-3V8c0-1.6-1.3-3-3-3H67.1c-1.7,0-3,1.4-3,3v10.8C64.1,20.5,65.5,21.8,67.1,21.8z"
		/>
</g>
</svg>
